<?xml version="1.0" standalone="no"?>
<!DOCTYPE svg PUBLIC "-//W3C//DTD SVG 20010904//EN"
 "http://www.w3.org/TR/2001/REC-SVG-20010904/DTD/svg10.dtd">
<svg version="1.0" xmlns="http://www.w3.org/2000/svg"
 width="200.000000pt" height="200.000000pt" viewBox="0 0 200.000000 200.000000"
 preserveAspectRatio="xMidYMid meet">

<g transform="translate(0.000000,200.000000) scale(0.100000,-0.100000)"
fill="#000000" stroke="none">
<path d="M22 684 c-21 -14 -22 -22 -22 -135 l0 -119 25 0 c24 0 25 3 25 55 l0
55 51 0 c47 0 50 2 47 23 -3 19 -10 22 -51 25 -46 3 -48 4 -45 30 3 25 6 27
61 30 53 3 57 5 57 27 0 24 -3 25 -63 25 -40 0 -70 -5 -85 -16z"/>
<path d="M249 689 c-14 -5 -32 -21 -40 -36 -18 -34 -18 -143 0 -177 27 -50
127 -59 167 -15 13 14 19 40 22 87 5 85 -8 119 -53 137 -39 17 -59 18 -96 4z
m91 -58 c14 -27 13 -124 -2 -139 -15 -15 -61 -15 -76 0 -16 16 -16 130 0 146
19 19 66 15 78 -7z"/>
<path d="M473 690 c-22 -9 -23 -14 -23 -135 l0 -125 25 0 c23 0 25 3 25 50 0
67 25 69 60 2 19 -36 31 -48 53 -50 33 -4 34 4 2 59 l-24 44 21 23 c29 30 29
85 1 114 -24 24 -103 34 -140 18z m105 -69 c4 -29 -4 -37 -45 -46 -32 -6 -33
-6 -33 28 0 42 7 49 45 45 23 -2 31 -9 33 -27z"/>
<path d="M698 689 c-15 -9 -18 -26 -18 -118 0 -130 3 -134 101 -139 68 -4 69
-4 69 21 0 25 -3 26 -57 29 -55 3 -58 5 -61 30 -3 25 0 27 40 30 35 2 43 7 43
23 0 16 -8 21 -42 23 -40 3 -43 5 -43 33 0 29 0 29 60 29 57 0 60 1 60 25 0
24 -2 25 -67 25 -38 0 -76 -5 -85 -11z"/>
<path d="M930 687 c-86 -43 -47 -147 55 -147 32 0 51 -25 35 -45 -18 -22 -67
-19 -82 5 -15 23 -58 27 -58 6 0 -27 44 -67 80 -72 71 -11 128 36 115 96 -8
34 -47 60 -93 60 -38 0 -60 24 -42 45 7 8 26 15 42 15 16 0 31 -6 34 -15 7
-16 54 -21 54 -6 0 23 -15 43 -41 56 -34 18 -66 19 -99 2z"/>
<path d="M1380 688 c-39 -21 -51 -55 -48 -135 4 -94 25 -118 97 -118 38 0 55
5 74 23 46 44 45 174 -2 216 -25 23 -89 30 -121 14z m91 -54 c7 -9 13 -40 13
-69 0 -61 -15 -85 -55 -85 -35 0 -49 24 -49 85 0 25 5 55 10 66 13 24 62 26
81 3z"/>
<path d="M1577 693 c-2 -4 -4 -52 -3 -105 1 -92 2 -99 29 -125 39 -40 105 -40
144 0 27 26 28 31 28 130 l0 102 -25 0 c-25 0 -25 -1 -28 -94 -3 -101 -11
-121 -47 -121 -36 0 -44 20 -47 121 -3 88 -4 94 -25 97 -11 2 -23 0 -26 -5z"/>
<path d="M1810 675 c0 -21 5 -25 30 -25 l29 0 3 -107 3 -108 28 -3 27 -3 0
110 0 111 35 0 c31 0 35 3 35 25 0 25 0 25 -95 25 -95 0 -95 0 -95 -25z"/>
<path d="M1131 664 c-42 -53 -39 -163 4 -204 37 -35 110 -33 142 4 29 34 31
76 4 76 -12 0 -25 -11 -33 -27 -18 -38 -66 -39 -86 -3 -14 28 -9 105 9 126 17
21 57 17 71 -6 15 -24 58 -27 58 -5 0 9 -11 27 -25 40 -19 20 -34 25 -74 25
-41 0 -53 -4 -70 -26z"/>
<path d="M1950 456 c0 -9 5 -16 10 -16 6 0 10 4 10 9 0 6 -4 13 -10 16 -5 3
-10 -1 -10 -9z"/>
</g>
</svg>
