<?xml version="1.0" standalone="no"?>
<!DOCTYPE svg PUBLIC "-//W3C//DTD SVG 20010904//EN"
 "http://www.w3.org/TR/2001/REC-SVG-20010904/DTD/svg10.dtd">
<svg version="1.0" xmlns="http://www.w3.org/2000/svg"
 width="400.000000pt" height="400.000000pt" viewBox="0 0 400.000000 400.000000"
 preserveAspectRatio="xMidYMid meet">

<g transform="translate(0.000000,400.000000) scale(0.100000,-0.100000)"
fill="#000000" stroke="none">
<path d="M2079 3216 c-2 -3 -3 -25 -1 -50 l4 -46 58 0 c44 0 59 -4 64 -16 3
-9 6 -168 6 -355 l0 -339 60 0 60 0 0 343 c0 188 4 348 9 355 5 9 25 13 62 11
l54 -3 3 52 3 52 -189 0 c-104 0 -191 -2 -193 -4z"/>
<path d="M2530 3215 c0 -3 0 -184 0 -402 l0 -398 160 -3 160 -2 0 54 c0 65 -2
66 -116 66 l-85 0 3 123 3 122 65 5 65 5 3 44 c4 53 -6 62 -71 59 -26 -1 -52
3 -57 8 -7 7 -10 53 -8 115 l3 104 97 3 96 3 4 45 c2 25 1 47 -1 50 -6 6 -321
5 -321 -1z"/>
<path d="M3030 3182 c0 -20 -5 -53 -10 -72 -6 -19 -15 -66 -19 -105 -5 -38
-19 -126 -30 -195 -12 -69 -28 -165 -37 -215 -8 -49 -19 -108 -24 -130 -5 -22
-6 -43 -4 -47 3 -5 29 -8 58 -8 l52 0 14 68 c21 111 22 112 79 112 58 0 81
-17 81 -61 0 -16 5 -49 12 -74 l12 -45 59 0 59 0 -7 28 c-4 15 -11 56 -16 92
-4 36 -15 108 -24 160 -9 52 -21 123 -26 158 -4 35 -13 80 -19 100 -5 20 -10
55 -10 76 0 22 -4 53 -10 70 -5 17 -12 52 -15 79 l-6 47 -85 0 -84 0 0 -38z
m101 -199 c2 -44 7 -82 19 -135 5 -27 10 -71 10 -98 0 -44 -3 -50 -24 -56 -14
-3 -34 -3 -45 1 -26 8 -28 58 -6 172 8 43 15 93 15 111 0 41 29 46 31 5z"/>
<path d="M3380 2815 l0 -406 58 3 57 3 0 252 c0 180 3 255 12 264 12 12 16 -3
27 -96 2 -22 9 -65 15 -95 6 -30 16 -82 21 -115 6 -33 18 -95 28 -137 16 -74
18 -78 44 -78 24 0 28 5 33 38 3 20 10 57 16 82 6 25 15 70 19 100 17 116 32
195 40 205 4 6 10 27 14 48 4 21 11 35 17 32 5 -4 9 -109 9 -256 l0 -250 50 3
51 3 0 400 0 400 -72 3 c-40 2 -76 -1 -81 -6 -8 -8 -31 -126 -49 -250 -4 -35
-13 -80 -19 -100 -5 -20 -10 -51 -10 -69 0 -90 -40 -10 -61 122 -20 129 -27
170 -40 238 l-13 67 -83 0 -83 0 0 -405z"/>
<path d="M0 885 l0 -885 2000 0 2000 0 0 885 0 885 -2000 0 -2000 0 0 -885z"/>
</g>
</svg>
