<?xml version="1.0" standalone="no"?>
<!DOCTYPE svg PUBLIC "-//W3C//DTD SVG 20010904//EN"
 "http://www.w3.org/TR/2001/REC-SVG-20010904/DTD/svg10.dtd">
<svg version="1.0" xmlns="http://www.w3.org/2000/svg"
 width="1280.000000pt" height="530.000000pt" viewBox="0 0 1280.000000 530.000000"
 preserveAspectRatio="xMidYMid meet">

<g transform="translate(0.000000,530.000000) scale(0.100000,-0.100000)"
fill="#000000" stroke="none">
<path d="M870 3826 l0 -1294 -350 -1155 c-193 -636 -350 -1158 -350 -1161 0
-4 139 -6 308 -6 l308 0 129 428 c71 235 142 469 157 520 l29 93 42 -3 42 -3
260 -517 260 -518 373 0 c204 0 372 2 372 4 0 3 -110 233 -245 511 -135 279
-245 511 -245 516 0 11 1117 13 1123 2 3 -5 -64 -235 -149 -513 -85 -278 -154
-508 -154 -513 0 -4 151 -6 336 -5 l337 3 153 509 c85 280 157 512 160 515 3
3 377 7 830 9 690 3 824 1 824 -10 0 -7 -65 -238 -145 -511 -80 -274 -145
-502 -145 -508 0 -5 136 -9 340 -9 187 0 340 2 340 5 0 5 212 760 276 983 l15
53 152 -3 152 -3 6 -450 c3 -247 7 -480 8 -517 l1 -68 283 0 284 0 332 520
333 520 214 0 c118 0 214 -3 214 -8 0 -4 -47 -225 -105 -492 -58 -267 -108
-497 -111 -513 l-6 -27 335 0 335 0 5 23 c3 12 51 236 107 497 55 261 105 485
110 498 9 22 12 22 198 22 l189 0 6 -137 c7 -168 38 -299 100 -428 140 -290
411 -453 847 -511 233 -30 716 -9 1070 47 180 28 444 79 459 88 7 5 65 217
129 472 l117 464 383 3 382 2 0 1935 0 1935 -1380 0 -1380 0 0 -1238 0 -1238
-71 -59 c-38 -32 -88 -80 -110 -107 -23 -26 -45 -48 -50 -48 -5 0 -9 547 -9
1345 l0 1345 -1380 0 -1380 0 -2 -1127 -3 -1128 -112 -3 -113 -3 0 1131 0
1130 -1385 0 -1385 0 0 -1130 0 -1130 -115 0 -115 0 0 1130 0 1130 -1385 0
-1385 0 0 -1294z m2668 32 l-3 -1163 -168 -550 c-93 -302 -186 -607 -208 -677
l-40 -128 -607 0 -607 1 -46 98 -47 99 527 534 c289 294 582 591 650 661 l125
127 -417 0 -416 0 -506 -540 c-279 -297 -508 -540 -510 -540 -3 0 11 48 193
650 l129 425 -308 3 -309 2 0 1080 0 1080 1285 0 1285 0 -2 -1162z m3002 82
l0 -1080 -322 0 -323 0 -220 -760 -220 -760 -339 0 c-187 0 -337 2 -335 4 2 2
33 16 69 32 307 133 489 375 550 732 71 411 -46 639 -373 724 -77 20 -109 22
-569 25 l-488 4 0 1080 0 1079 1285 0 1285 0 0 -1080z m3000 -276 l0 -1356
-71 -112 c-82 -129 -162 -290 -213 -429 -34 -90 -86 -294 -101 -389 l-6 -38
-188 0 -189 0 15 68 c7 37 79 373 158 748 80 374 145 686 145 692 0 9 -134 12
-542 10 l-543 -3 -483 -755 -482 -755 -40 -3 -40 -3 0 1840 0 1841 1290 0
1290 0 0 -1356z m3000 -484 l0 -1840 -325 0 c-179 0 -325 2 -325 5 0 3 23 95
50 205 28 110 50 202 50 205 0 3 -291 4 -647 3 l-647 -3 -51 -205 -51 -205
-317 -3 -317 -2 0 39 c0 21 9 81 19 133 101 489 377 847 733 948 94 27 256 37
340 21 174 -34 257 -119 266 -273 l5 -78 387 0 388 0 13 83 c53 327 -56 545
-339 679 -269 127 -770 154 -1202 63 -174 -36 -381 -114 -522 -195 -38 -22
-74 -40 -79 -40 -5 0 -9 464 -9 1150 l0 1150 1290 0 1290 0 0 -1840z m-7925
-751 c75 -14 127 -40 151 -76 41 -60 13 -224 -67 -390 -45 -95 -106 -160 -182
-197 -100 -48 -158 -58 -386 -63 -206 -5 -214 -5 -209 13 3 11 47 178 99 372
l93 352 221 0 c122 0 248 -5 280 -11z m1789 -621 l7 -468 -141 0 c-77 0 -140
3 -140 7 0 11 263 934 265 931 1 -2 5 -213 9 -470z m1795 -15 c-54 -247 -99
-449 -99 -450 0 -2 -86 -3 -191 -3 -123 0 -189 4 -187 10 6 18 563 889 569
889 3 1 -39 -200 -92 -446z m2945 -551 c8 -13 -121 -514 -134 -522 -28 -17
-283 -43 -420 -43 -115 1 -162 5 -225 22 -211 56 -335 172 -389 362 -19 67
-30 164 -21 178 7 13 1181 16 1189 3z"/>
</g>
</svg>
