<?xml version="1.0" standalone="no"?>
<!DOCTYPE svg PUBLIC "-//W3C//DTD SVG 20010904//EN"
 "http://www.w3.org/TR/2001/REC-SVG-20010904/DTD/svg10.dtd">
<svg version="1.0" xmlns="http://www.w3.org/2000/svg"
 width="742.000000pt" height="262.000000pt" viewBox="0 0 742.000000 262.000000"
 preserveAspectRatio="xMidYMid meet">

<g transform="translate(0.000000,262.000000) scale(0.100000,-0.100000)"
fill="#000000" stroke="none">
<path d="M4954 2610 c-134 -27 -211 -109 -229 -246 -9 -65 15 -161 55 -219 32
-47 85 -88 255 -198 91 -60 114 -80 133 -117 27 -54 28 -111 3 -166 -15 -34
-28 -45 -65 -59 -120 -46 -216 28 -216 168 l0 37 -91 0 -92 0 7 -72 c10 -108
25 -147 76 -199 58 -58 111 -74 250 -74 132 0 195 20 256 81 58 57 78 126 72
243 -7 146 -29 173 -266 331 -173 116 -196 142 -196 219 1 90 51 141 139 141
86 0 135 -50 135 -139 l0 -41 91 0 92 0 -5 70 c-7 92 -39 155 -100 196 -70 48
-194 65 -304 44z"/>
<path d="M7 2594 c-11 -12 -8 -792 4 -864 20 -126 70 -200 163 -242 44 -20 67
-23 176 -23 109 0 132 3 176 23 95 43 145 119 164 248 5 38 10 248 10 467 l0
398 -87 -3 -88 -3 -5 -440 c-5 -403 -7 -443 -24 -477 -57 -116 -229 -112 -294
7 -15 26 -18 86 -22 470 l-5 440 -80 3 c-45 1 -84 0 -88 -4z"/>
<path d="M920 2040 l0 -560 75 0 75 0 2 460 3 461 62 -178 c34 -98 89 -257
123 -353 34 -96 78 -223 98 -282 l36 -108 133 0 133 0 0 560 0 560 -80 0 -80
0 -2 -464 -3 -463 -160 461 -161 461 -127 3 -127 3 0 -561z"/>
<path d="M1917 2593 c-4 -3 -7 -255 -7 -560 l0 -553 90 0 90 0 0 560 0 560
-83 0 c-46 0 -87 -3 -90 -7z"/>
<path d="M2230 2588 c0 -7 63 -258 139 -558 l138 -545 103 0 104 0 8 30 c5 17
69 258 143 537 73 280 136 517 140 528 6 19 2 20 -79 20 -47 0 -87 -4 -90 -9
-8 -13 -206 -881 -206 -902 0 -11 -4 -19 -10 -19 -5 0 -10 7 -10 15 0 15 -185
862 -196 898 -5 14 -18 17 -95 17 -65 0 -89 -3 -89 -12z"/>
<path d="M3140 2040 l0 -560 280 0 280 0 0 70 0 70 -195 0 -195 0 0 185 0 185
180 0 180 0 0 70 0 70 -180 0 -180 0 0 165 0 165 190 0 190 0 0 70 0 70 -275
0 -275 0 0 -560z"/>
<path d="M3897 2593 c-4 -3 -7 -255 -7 -560 l0 -553 90 0 90 0 0 251 0 251 88
-4 c161 -9 171 -23 183 -262 5 -94 12 -186 15 -203 l5 -33 90 0 91 0 -7 48
c-3 26 -10 121 -15 212 -12 224 -22 254 -100 289 l-43 19 39 20 c81 41 118
116 118 242 1 176 -60 254 -215 280 -70 11 -412 14 -422 3z m370 -144 c72 -27
105 -109 84 -210 -20 -97 -73 -128 -218 -129 l-63 0 0 175 0 175 84 0 c47 0
97 -5 113 -11z"/>
<path d="M5580 2040 l0 -561 88 3 87 3 0 555 0 555 -87 3 -88 3 0 -561z"/>
<path d="M5890 2530 l0 -70 130 0 130 0 0 -490 0 -490 85 0 85 0 0 490 0 490
130 0 130 0 0 70 0 70 -345 0 -345 0 0 -70z"/>
<path d="M6613 2588 c3 -7 25 -60 50 -118 24 -58 88 -208 141 -333 l96 -228 0
-214 0 -215 90 0 90 0 0 213 0 213 150 336 c83 185 150 341 150 347 0 7 -29
11 -86 11 l-85 0 -23 -52 c-12 -29 -58 -146 -102 -260 -43 -114 -81 -204 -85
-200 -3 4 -41 102 -84 217 -42 116 -86 229 -96 253 l-18 42 -97 0 c-73 0 -95
-3 -91 -12z"/>
<path d="M245 1151 c-94 -24 -169 -92 -203 -183 -55 -148 -57 -619 -3 -774 24
-66 50 -100 103 -137 59 -39 110 -51 218 -51 124 1 183 20 249 82 66 63 88
134 101 331 18 251 -2 492 -47 588 -48 103 -128 145 -283 149 -58 2 -118 0
-135 -5z m168 -135 c18 -7 45 -27 59 -44 49 -59 53 -85 53 -387 0 -312 -5
-343 -60 -403 -33 -36 -35 -37 -110 -37 -74 0 -78 1 -105 32 -49 54 -61 116
-67 333 -9 334 16 451 107 498 51 25 78 27 123 8z"/>
<path d="M930 580 l0 -561 88 3 87 3 3 253 2 252 165 0 165 0 0 65 0 65 -165
0 -165 0 0 170 0 170 170 0 170 0 0 70 0 70 -260 0 -260 0 0 -560z"/>
<path d="M1910 1070 l0 -70 125 0 125 0 0 -490 0 -490 90 0 90 0 0 490 0 489
128 3 127 3 0 65 0 65 -342 3 -343 2 0 -70z"/>
<path d="M2676 1123 c2 -10 49 -232 104 -493 56 -261 108 -505 117 -542 l16
-68 101 0 101 0 17 83 c122 592 173 827 177 816 2 -8 41 -212 86 -454 l82
-440 101 -3 c98 -3 102 -2 107 20 3 13 57 255 120 538 63 283 117 525 120 538
5 21 3 22 -79 22 l-83 0 -37 -192 c-20 -106 -43 -229 -51 -273 -9 -44 -31
-161 -49 -260 -19 -99 -36 -173 -39 -165 -6 15 -167 869 -167 883 0 4 -47 7
-104 7 l-104 0 -11 -47 c-32 -153 -171 -837 -171 -846 0 -6 -3 -8 -6 -5 -5 6
-19 82 -113 613 -23 127 -44 242 -47 258 l-6 27 -93 0 c-84 0 -93 -2 -89 -17z"/>
<path d="M4062 583 l3 -558 280 0 280 0 3 67 3 68 -196 0 -195 0 0 185 0 185
175 0 175 0 0 70 0 70 -175 0 -175 0 0 165 0 165 188 2 187 3 3 68 3 67 -281
0 -280 0 2 -557z"/>
<path d="M4820 580 l0 -560 75 0 75 0 2 465 3 466 42 -118 c23 -65 92 -262
153 -438 61 -176 116 -333 122 -348 l11 -28 131 3 131 3 3 558 2 557 -80 0
-80 0 0 -467 c0 -257 -4 -463 -8 -458 -5 6 -80 216 -167 468 l-158 457 -129 0
-128 0 0 -560z"/>
<path d="M5700 1070 l0 -70 125 0 125 0 2 -487 3 -488 85 0 85 0 3 488 2 487
130 0 130 0 0 70 0 70 -345 0 -345 0 0 -70z"/>
<path d="M6520 580 l0 -560 285 0 285 0 0 70 0 70 -195 0 -195 0 0 185 0 185
175 0 175 0 0 70 0 70 -175 0 -175 0 0 165 0 165 190 0 190 0 0 70 0 70 -280
0 -280 0 0 -560z"/>
<path d="M7269 167 c-47 -36 -51 -97 -10 -138 63 -62 151 -24 151 65 0 36 -5
48 -26 65 -30 23 -90 28 -115 8z"/>
</g>
</svg>
