<?xml version="1.0" standalone="no"?>
<!DOCTYPE svg PUBLIC "-//W3C//DTD SVG 20010904//EN"
 "http://www.w3.org/TR/2001/REC-SVG-20010904/DTD/svg10.dtd">
<svg version="1.0" xmlns="http://www.w3.org/2000/svg"
 width="900.000000pt" height="500.000000pt" viewBox="0 0 900.000000 500.000000"
 preserveAspectRatio="xMidYMid meet">

<g transform="translate(0.000000,500.000000) scale(0.100000,-0.100000)"
fill="#000000" stroke="none">
<path d="M3472 3318 c-114 -275 -692 -1698 -692 -1702 0 -3 57 -6 128 -6 l127
0 345 846 c190 466 353 866 362 890 l18 44 -129 0 -129 0 -30 -72z"/>
<path d="M6798 3280 c-107 -32 -152 -169 -87 -264 32 -47 70 -67 137 -73 46
-4 66 0 102 19 65 33 90 76 90 153 0 48 -5 70 -23 96 -41 63 -138 94 -219 69z
m111 -74 c70 -37 65 -155 -8 -186 -67 -27 -131 19 -131 94 0 83 68 128 139 92z"/>
<path d="M190 3130 l0 -150 210 0 210 0 0 -575 0 -575 180 0 180 0 0 575 0
575 210 0 210 0 0 150 0 150 -600 0 -600 0 0 -150z"/>
<path d="M1532 2768 c4 -461 6 -519 22 -568 62 -190 187 -313 381 -377 71 -23
96 -26 225 -27 162 0 229 13 335 65 169 83 274 225 305 411 6 36 10 262 10
536 l0 472 -180 0 -179 0 -3 -487 c-3 -475 -4 -489 -24 -533 -27 -56 -63 -94
-117 -122 -35 -19 -58 -23 -137 -23 -115 0 -174 24 -221 88 -57 79 -59 96 -59
609 l0 468 -181 0 -180 0 3 -512z"/>
<path d="M5110 3115 l0 -165 115 0 115 0 0 30 0 30 -75 0 -75 0 0 40 0 40 70
0 70 0 0 30 0 30 -70 0 -70 0 0 35 0 35 70 0 70 0 0 30 0 30 -110 0 -110 0 0
-165z"/>
<path d="M5410 3115 l0 -165 40 0 40 0 0 165 0 165 -40 0 -40 0 0 -165z"/>
<path d="M5570 3115 l0 -165 40 0 40 0 0 108 0 107 66 -107 66 -108 44 0 44 0
0 165 0 165 -35 0 -34 0 -3 -107 -3 -108 -65 107 -65 107 -47 1 -48 0 0 -165z"/>
<path d="M5960 3116 l0 -166 87 0 c149 0 213 50 213 166 0 114 -53 155 -207
162 l-93 4 0 -166z m195 69 c19 -18 25 -35 25 -68 0 -66 -23 -89 -93 -95 l-57
-4 0 96 0 96 50 0 c41 0 56 -5 75 -25z"/>
<path d="M6330 3115 l0 -165 40 0 40 0 0 70 0 70 65 0 65 0 0 -70 0 -70 40 0
40 0 0 165 0 165 -40 0 -40 0 0 -65 0 -65 -65 0 -65 0 0 65 0 65 -40 0 -40 0
0 -165z"/>
<path d="M7060 3275 c0 -5 80 -220 105 -283 17 -42 19 -43 59 -40 l41 3 38
100 c21 55 49 128 62 163 l24 62 -44 0 -44 0 -37 -115 c-20 -63 -37 -115 -39
-115 -2 0 -21 52 -42 115 l-37 115 -43 0 c-24 0 -43 -2 -43 -5z"/>
<path d="M7430 3115 l0 -165 115 0 115 0 0 30 0 30 -75 0 -75 0 0 40 0 40 70
0 70 0 0 30 0 30 -70 0 -70 0 0 35 0 35 70 0 70 0 0 30 0 30 -110 0 -110 0 0
-165z"/>
<path d="M7730 3115 l0 -165 40 0 40 0 0 108 0 107 66 -107 66 -108 44 0 44 0
0 165 0 165 -35 0 -35 0 0 -107 c0 -108 0 -108 -19 -84 -11 14 -41 62 -67 108
l-49 83 -47 0 -48 0 0 -165z"/>
<path d="M4040 2870 c-266 -38 -460 -263 -460 -534 0 -162 44 -271 154 -381
123 -123 251 -172 426 -162 160 10 297 68 400 171 28 27 50 52 50 56 0 3 -53
28 -119 55 l-119 48 -38 -30 c-88 -69 -239 -90 -335 -46 -63 28 -126 87 -155
145 l-24 48 417 2 418 3 3 72 c13 331 -288 601 -618 553z m192 -250 c35 -13
70 -37 100 -67 45 -47 74 -91 65 -99 -2 -2 -131 -3 -286 -2 l-282 3 32 48 c34
51 96 100 157 122 56 20 152 18 214 -5z"/>
<path d="M7025 2715 c-42 -22 -55 -43 -55 -90 0 -51 23 -76 95 -102 36 -13 51
-24 53 -40 6 -43 -58 -53 -100 -16 -15 14 -20 12 -42 -12 -30 -32 -26 -42 20
-61 75 -31 173 -5 194 52 25 65 -3 112 -85 142 -42 15 -50 22 -50 42 0 21 5
26 33 28 18 2 40 -2 48 -9 12 -10 19 -7 39 11 14 13 25 27 25 31 0 12 -78 39
-113 39 -17 0 -45 -7 -62 -15z"/>
<path d="M8275 2718 c-80 -28 -128 -122 -105 -207 22 -83 89 -131 182 -131
150 0 231 173 133 287 -49 57 -133 78 -210 51z m143 -93 c51 -59 17 -160 -58
-171 -73 -11 -121 49 -105 132 13 72 113 96 163 39z"/>
<path d="M5111 2593 c4 -134 11 -156 58 -190 36 -24 120 -27 160 -5 58 32 71
69 71 204 l0 118 -40 0 -40 0 0 -115 c0 -102 -2 -117 -20 -135 -27 -27 -62
-25 -88 3 -20 21 -22 34 -22 135 l0 112 -41 0 -41 0 3 -127z"/>
<path d="M5480 2555 l0 -165 35 0 34 0 3 107 3 108 65 -108 65 -107 48 0 47 0
0 165 0 165 -40 0 -39 0 -3 -105 -3 -105 -64 105 -63 105 -44 0 -44 0 0 -165z"/>
<path d="M5860 2555 l0 -165 40 0 40 0 0 165 0 165 -40 0 -40 0 0 -165z"/>
<path d="M5985 2703 c4 -10 32 -84 62 -165 l55 -148 42 0 42 0 59 153 c32 83
60 158 62 165 4 8 -8 12 -39 12 l-44 0 -34 -107 c-19 -60 -37 -112 -41 -117
-4 -4 -24 44 -43 108 l-37 116 -45 0 c-40 0 -45 -2 -39 -17z"/>
<path d="M6350 2555 l0 -165 121 0 120 0 -3 33 -3 32 -77 3 -78 3 0 34 0 35
70 0 70 0 0 30 0 30 -70 0 -70 0 0 35 0 35 75 0 75 0 0 30 0 30 -115 0 -115 0
0 -165z"/>
<path d="M6650 2555 l0 -165 40 0 40 0 0 65 c0 50 3 65 15 65 7 0 30 -29 50
-65 l37 -65 45 0 45 0 -28 48 c-15 26 -33 55 -40 66 -11 16 -8 23 22 51 38 36
43 68 20 114 -21 40 -56 51 -156 51 l-90 0 0 -165z m164 89 c33 -33 7 -64 -53
-64 -29 0 -31 2 -31 40 0 39 1 40 34 40 19 0 42 -7 50 -16z"/>
<path d="M7260 2555 l0 -165 40 0 40 0 0 165 0 165 -40 0 -40 0 0 -165z"/>
<path d="M7390 2685 c0 -35 0 -35 45 -35 l45 0 0 -130 0 -130 40 0 40 0 0 129
0 130 48 3 c45 3 47 4 50 36 l3 32 -135 0 -136 0 0 -35z"/>
<path d="M7690 2716 c0 -3 27 -47 60 -98 58 -90 60 -94 60 -160 l0 -68 40 0
40 0 0 73 c0 69 2 75 43 137 24 36 52 77 61 93 l18 27 -45 0 c-46 0 -46 0 -80
-60 -37 -67 -35 -67 -81 13 -26 45 -29 47 -71 47 -25 0 -45 -2 -45 -4z"/>
<path d="M8590 2555 l0 -165 40 0 40 0 0 65 0 65 65 0 65 0 0 30 0 30 -65 0
-65 0 0 35 0 35 70 0 70 0 0 35 0 35 -110 0 -110 0 0 -165z"/>
<path d="M5789 2149 c-88 -52 -111 -182 -47 -264 58 -74 204 -86 258 -21 12
16 11 20 -10 37 -14 10 -32 16 -40 13 -8 -4 -27 -11 -41 -17 -57 -23 -127 50
-114 119 13 70 88 107 141 69 19 -13 23 -12 49 15 l27 28 -28 18 c-43 29 -149
30 -195 3z"/>
<path d="M6903 2159 c-73 -21 -121 -109 -108 -196 10 -65 73 -129 137 -138
119 -18 207 42 224 150 11 76 -45 165 -115 185 -43 12 -95 11 -138 -1z m138
-88 c57 -57 31 -158 -45 -177 -58 -14 -116 38 -116 103 1 91 99 136 161 74z"/>
<path d="M7566 2160 c-66 -20 -106 -83 -106 -168 0 -74 26 -118 90 -149 164
-83 331 78 247 237 -39 75 -136 108 -231 80z m135 -89 c57 -58 31 -158 -47
-177 -34 -9 -87 18 -103 52 -48 106 71 204 150 125z"/>
<path d="M7965 2156 c-41 -18 -82 -68 -95 -117 -22 -80 14 -158 90 -197 37
-19 56 -23 105 -19 33 3 72 10 88 16 27 10 27 12 27 96 l0 85 -70 0 -70 0 0
-30 c0 -28 3 -30 36 -30 33 0 35 -2 32 -27 -4 -38 -52 -52 -100 -29 -40 19
-58 51 -58 102 0 71 86 118 152 83 16 -9 24 -7 44 12 13 12 24 26 24 30 0 4
-18 14 -40 23 -49 19 -124 20 -165 2z"/>
<path d="M5110 2131 c0 -28 2 -30 48 -33 l47 -3 3 -132 3 -133 39 0 40 0 0
135 0 135 45 0 c43 0 45 1 45 30 l0 30 -135 0 -135 0 0 -29z"/>
<path d="M5430 1995 l0 -165 115 0 115 0 0 35 0 35 -80 0 -80 0 0 35 0 35 70
0 70 0 0 30 0 30 -71 0 -70 0 3 33 3 32 73 3 72 3 0 29 0 30 -110 0 -110 0 0
-165z"/>
<path d="M6060 1995 l0 -165 40 0 40 0 0 70 0 70 65 0 65 0 0 -70 0 -70 40 0
40 0 0 165 0 165 -40 0 -40 0 0 -60 0 -60 -65 0 -65 0 0 60 0 60 -40 0 -40 0
0 -165z"/>
<path d="M6430 1996 l0 -166 35 0 35 0 0 107 c0 72 3 104 10 97 6 -6 36 -53
68 -105 l58 -94 47 -3 47 -3 0 165 0 166 -35 0 -35 0 0 -107 c0 -77 -3 -104
-11 -96 -6 6 -37 53 -68 104 l-58 94 -46 3 -47 3 0 -165z"/>
<path d="M7220 1995 l0 -165 105 0 105 0 0 35 0 35 -65 0 -65 0 0 130 0 130
-40 0 -40 0 0 -165z"/>
<path d="M8216 2148 c4 -7 32 -50 61 -96 51 -80 53 -85 53 -152 l0 -70 40 0
40 0 0 70 c0 70 1 72 60 160 33 49 60 92 60 95 0 3 -20 5 -44 5 -44 0 -45 -1
-78 -61 l-35 -61 -34 59 c-34 57 -36 58 -83 61 -37 2 -46 0 -40 -10z"/>
</g>
</svg>
