<?xml version="1.0" standalone="no"?>
<!DOCTYPE svg PUBLIC "-//W3C//DTD SVG 20010904//EN"
 "http://www.w3.org/TR/2001/REC-SVG-20010904/DTD/svg10.dtd">
<svg version="1.0" xmlns="http://www.w3.org/2000/svg"
 width="1667.000000pt" height="1668.000000pt" viewBox="0 0 1667.000000 1668.000000"
 preserveAspectRatio="xMidYMid meet">

<g transform="translate(0.000000,1668.000000) scale(0.100000,-0.100000)"
fill="#000000" stroke="none">
<path d="M7705 13683 c-623 -54 -1045 -136 -1520 -295 -191 -64 -623 -243
-612 -254 1 -2 59 15 127 37 866 275 1828 276 2533 3 223 -86 497 -241 671
-378 284 -222 544 -553 703 -893 62 -134 128 -338 155 -480 32 -170 32 -450 0
-610 -41 -206 -125 -408 -240 -582 -69 -105 -221 -264 -330 -346 -219 -164
-511 -265 -767 -265 -68 0 -234 19 -300 35 -48 11 110 -57 205 -89 123 -41
227 -67 365 -93 83 -15 152 -18 400 -17 260 0 319 3 443 22 270 42 475 109
726 234 855 428 1394 1218 1551 2273 23 154 44 389 37 396 -30 28 -294 219
-407 294 -208 137 -394 244 -645 369 -748 371 -1555 579 -2470 636 -152 9
-532 11 -625 3z"/>
<path d="M6685 12944 c-376 -38 -555 -66 -785 -124 -423 -106 -834 -285 -1175
-514 -362 -242 -783 -649 -1086 -1051 -189 -250 -279 -411 -279 -498 0 -50 6
-64 83 -188 131 -214 321 -470 496 -669 118 -135 242 -259 245 -247 2 7 22 90
45 184 245 1020 835 1808 1686 2254 302 159 643 270 930 304 186 22 526 23
698 1 533 -68 939 -227 1262 -498 343 -286 585 -686 631 -1043 l8 -60 7 50
c13 87 9 287 -6 380 -59 366 -278 762 -586 1060 -361 350 -825 558 -1429 641
-110 15 -646 28 -745 18z"/>
<path d="M7209 12090 c-372 -36 -592 -96 -904 -250 -882 -434 -1435 -1260
-1574 -2353 -11 -84 -22 -190 -26 -237 l-6 -85 133 -99 c907 -674 1961 -1070
3138 -1180 232 -22 626 -38 745 -31 767 47 1400 184 1987 429 135 56 332 150
273 130 -304 -103 -593 -170 -930 -216 -148 -20 -213 -22 -510 -23 -224 0
-376 5 -445 13 -997 126 -1721 607 -2116 1407 -160 325 -224 629 -202 954 39
584 396 1088 913 1290 223 88 480 107 735 55 43 -9 1 12 -111 57 -122 48 -322
101 -474 124 -126 20 -490 28 -626 15z"/>
<path d="M12376 11878 c-222 -1017 -698 -1762 -1441 -2256 -358 -238 -777
-408 -1150 -468 -137 -22 -537 -30 -701 -15 -438 41 -850 175 -1144 370 -420
278 -733 716 -805 1125 -8 49 -17 91 -19 93 -9 10 -18 -200 -12 -290 36 -556
457 -1177 1014 -1495 308 -177 644 -281 1077 -334 184 -22 670 -17 894 11 837
101 1511 383 2081 870 382 326 777 780 967 1112 96 169 95 192 -26 387 -147
237 -360 514 -579 755 -152 167 -150 165 -156 135z"/>
<path d="M3163 6450 c-315 -32 -513 -189 -516 -410 -3 -166 97 -282 311 -360
48 -18 183 -56 300 -86 249 -63 299 -83 348 -136 33 -36 36 -45 31 -82 -12
-85 -104 -133 -277 -143 -172 -10 -347 44 -485 150 l-60 46 -102 -102 c-57
-56 -103 -105 -103 -109 0 -17 141 -113 225 -153 337 -164 807 -128 1006 76
74 75 102 144 103 254 1 71 -3 88 -32 147 -73 149 -193 218 -522 303 -280 72
-365 102 -407 141 -46 43 -44 76 6 124 46 44 124 68 243 76 152 11 314 -43
424 -140 l51 -45 104 105 104 105 -45 40 c-171 152 -437 226 -707 199z"/>
<path d="M6260 6443 c-244 -41 -439 -177 -533 -374 -63 -130 -82 -222 -80
-384 1 -150 21 -242 76 -352 91 -179 238 -291 453 -345 119 -29 353 -32 459
-4 115 29 261 105 335 174 l65 61 -99 100 -100 100 -50 -47 c-98 -92 -190
-130 -331 -139 -167 -10 -288 28 -381 121 -86 86 -124 194 -124 350 1 197 79
351 217 423 78 41 150 57 258 57 150 0 266 -46 354 -139 l49 -52 103 103 103
104 -44 45 c-91 92 -220 160 -362 189 -72 15 -300 21 -368 9z"/>
<path d="M4210 5710 l0 -730 600 0 600 0 0 135 0 135 -467 0 c-451 0 -466 1
-450 18 14 15 17 42 17 148 0 88 -4 134 -12 142 -9 9 81 12 405 12 l417 0 0
135 0 135 -415 0 c-384 0 -440 3 -405 25 6 4 10 62 10 140 0 78 -4 136 -10
140 -35 22 24 25 450 25 l460 0 0 135 0 135 -600 0 -600 0 0 -730z"/>
<path d="M7252 5963 c4 -453 5 -482 26 -556 63 -228 214 -373 442 -424 111
-25 350 -22 452 5 198 53 329 166 394 339 49 128 53 183 54 666 l0 447 -150 0
-150 0 0 -432 c0 -473 -5 -524 -57 -619 -34 -63 -81 -103 -153 -131 -45 -18
-76 -21 -175 -21 -135 0 -199 17 -267 73 -49 41 -95 137 -108 225 -5 39 -10
258 -10 488 l0 417 -151 0 -150 0 3 -477z"/>
<path d="M8940 5710 l0 -730 150 0 150 0 0 263 c0 197 -3 266 -12 276 -11 10
27 12 197 9 207 -3 211 -3 267 -31 32 -16 70 -43 85 -62 16 -19 77 -129 137
-244 l109 -211 169 0 c94 0 168 4 166 8 -1 5 -64 124 -138 266 -131 250 -176
317 -239 357 l-24 15 51 33 c141 90 214 237 193 387 -21 148 -105 258 -246
325 -129 62 -196 69 -636 69 l-379 0 0 -730z m855 430 c143 -71 138 -245 -9
-323 -39 -21 -56 -22 -306 -25 -213 -3 -263 -1 -252 9 8 9 12 60 12 179 0 119
-4 170 -12 179 -11 10 38 12 252 9 260 -3 266 -4 315 -28z"/>
<path d="M10550 5710 l0 -730 150 0 150 0 0 730 0 730 -150 0 -150 0 0 -730z"/>
<path d="M11070 6305 l0 -135 253 0 252 0 -3 -595 -3 -595 151 0 150 0 -2 595
-3 595 258 0 257 0 0 135 0 135 -655 0 -655 0 0 -135z"/>
<path d="M12454 6433 c2 -5 151 -199 330 -433 l326 -425 0 -297 0 -298 150 0
150 0 0 303 1 302 305 400 c169 220 315 412 326 428 l19 27 -188 0 -188 0
-170 -230 c-93 -127 -188 -262 -210 -300 -22 -38 -44 -68 -50 -67 -5 2 -30 38
-55 79 -25 41 -119 175 -209 297 l-163 221 -190 0 c-104 0 -187 -3 -184 -7z"/>
<path d="M13065 4516 c-200 -39 -333 -124 -398 -255 -28 -58 -32 -75 -32 -151
0 -70 4 -94 25 -135 34 -69 105 -135 191 -177 99 -48 135 -60 403 -129 297
-76 370 -116 370 -204 0 -65 -59 -117 -163 -141 -75 -18 -241 -17 -321 2 -83
19 -212 81 -278 134 -28 22 -55 40 -59 40 -5 0 -53 -45 -108 -100 l-99 -99 24
-27 c38 -41 161 -118 244 -153 146 -61 231 -75 431 -75 152 1 192 4 258 22
165 45 278 123 338 234 33 60 34 67 34 168 0 96 -2 110 -28 159 -75 141 -204
214 -527 296 -355 91 -430 124 -430 193 0 72 92 126 239 141 187 20 356 -33
474 -147 l37 -36 105 104 105 104 -23 24 c-67 73 -213 153 -349 193 -94 27
-356 36 -463 15z"/>
<path d="M2680 3790 l0 -730 150 0 150 0 0 416 c0 240 4 413 9 410 5 -3 21
-36 36 -73 24 -62 403 -732 430 -761 9 -10 55 62 218 345 113 197 218 390 234
428 l28 70 3 -417 2 -418 155 0 155 0 0 730 0 731 -127 -3 -127 -3 -235 -407
c-130 -224 -249 -441 -265 -483 -16 -41 -32 -73 -35 -69 -3 3 -19 38 -36 78
-17 40 -136 256 -264 480 l-235 406 -123 0 -123 0 0 -730z"/>
<path d="M4975 3943 c-153 -318 -311 -647 -351 -730 l-73 -153 167 0 167 1 70
151 c39 83 69 162 68 175 l-2 23 365 0 c359 0 365 0 359 -20 -4 -13 18 -71 67
-174 l73 -155 167 -1 166 0 -164 343 c-91 188 -249 516 -351 730 l-186 387
-132 0 -132 0 -278 -577z m430 145 c22 -67 172 -387 193 -410 14 -17 4 -18
-213 -18 -217 0 -227 1 -213 18 21 23 171 343 193 410 9 28 18 52 20 52 2 0
11 -24 20 -52z"/>
<path d="M6230 4385 l0 -135 258 0 257 0 -3 -595 -3 -595 151 0 151 0 -3 595
-3 595 258 0 257 0 0 135 0 135 -660 0 -660 0 0 -135z"/>
<path d="M7730 4385 l0 -135 258 0 257 0 -3 -595 -2 -595 150 0 151 0 -3 595
-3 595 253 0 252 0 0 135 0 135 -655 0 -655 0 0 -135z"/>
<path d="M9360 3790 l0 -730 600 0 600 0 0 135 0 135 -467 0 c-451 0 -466 1
-450 18 14 15 17 41 17 142 0 101 -3 127 -17 142 -16 17 -2 18 405 18 l422 0
0 135 0 135 -422 0 c-407 0 -421 1 -405 18 14 15 17 42 17 147 0 105 -3 132
-17 147 -16 17 -1 18 450 18 l467 0 0 135 0 135 -600 0 -600 0 0 -730z"/>
<path d="M10960 3791 l0 -731 150 0 150 0 0 263 c0 197 -3 266 -12 276 -11 10
25 12 192 9 312 -6 321 -12 489 -333 l109 -210 172 -3 172 -2 -39 72 c-22 40
-84 159 -139 263 -84 161 -108 199 -161 252 l-62 62 42 25 c57 33 129 111 164
177 26 50 28 63 28 159 -1 87 -5 115 -24 165 -32 80 -122 170 -212 213 -127
61 -154 64 -606 69 l-413 5 0 -731z m835 435 c167 -72 159 -282 -13 -340 -59
-21 -554 -24 -534 -4 15 15 17 334 2 343 -5 3 -10 11 -10 17 0 7 82 9 258 6
216 -4 263 -7 297 -22z"/>
</g>
</svg>
